HIERARCHY
ROOT hip
{
	OFFSET 0.000000 0.000000 0.000000
	CHANNELS 6 Xposition Yposition Zposition Xrotation Zrotation Yrotation 
	JOINT abdomen
	{
		OFFSET 0.000000 3.422050 0.000000
		CHANNELS 3 Xrotation Zrotation Yrotation 
		JOINT chest
		{
			OFFSET 0.000000 8.486693 -0.684411
			CHANNELS 3 Xrotation Zrotation Yrotation 
			JOINT neck
			{
				OFFSET 0.000000 10.266162 -0.273764
				CHANNELS 3 Xrotation Zrotation Yrotation 
				JOINT head
				{
					OFFSET 0.000000 3.148285 0.000000
					CHANNELS 3 Xrotation Zrotation Yrotation 
					End Site
					{
						OFFSET 0.000000 3.148289 0.000000
					}
				}
			}
			JOINT lCollar
			{
				OFFSET 3.422053 6.707223 -0.821293
				CHANNELS 3 Yrotation Zrotation Xrotation 
				JOINT lShldr
				{
					OFFSET 3.285171 0.000000 0.000000
					CHANNELS 3 Zrotation Yrotation Xrotation 
					JOINT lForeArm
					{
						OFFSET 10.129278 0.000000 0.000000
						CHANNELS 3 Yrotation Zrotation Xrotation 
						JOINT lHand
						{
							OFFSET 8.486692 0.000000 0.000000
							CHANNELS 3 Zrotation Yrotation Xrotation 
							End Site
							{
								OFFSET 4.106464 0.000000 0.000000
							}
						}
					}
				}
			}
			JOINT rCollar
			{
				OFFSET -3.558935 6.707223 -0.821293
				CHANNELS 3 Yrotation Zrotation Xrotation 
				JOINT rShldr
				{
					OFFSET -3.148289 0.000000 0.000000
					CHANNELS 3 Zrotation Yrotation Xrotation 
					JOINT rForeArm
					{
						OFFSET -10.266159 0.000000 0.000000
						CHANNELS 3 Yrotation Zrotation Xrotation 
						JOINT rHand
						{
							OFFSET -8.349810 0.000000 0.000000
							CHANNELS 3 Zrotation Yrotation Xrotation 
							End Site
							{
								OFFSET -4.106464 0.000000 0.000000
							}
						}
					}
				}
			}
		}
	}
	JOINT lThigh
	{
		OFFSET 5.338403 -1.642589 1.368821
		CHANNELS 3 Xrotation Zrotation Yrotation 
		JOINT lShin
		{
			OFFSET -2.053232 -20.121670 0.000000
			CHANNELS 3 Xrotation Zrotation Yrotation 
			JOINT lFoot
			{
				OFFSET 0.000000 -19.300380 -1.231939
				CHANNELS 3 Xrotation Yrotation Zrotation 
				End Site
				{
					OFFSET 0.000000 -2.463878 4.653993
				}
			}
		}
	}
	JOINT rThigh
	{
		OFFSET -5.338403 -1.642589 1.368821
		CHANNELS 3 Xrotation Zrotation Yrotation 
		JOINT rShin
		{
			OFFSET 2.053232 -20.121670 0.000000
			CHANNELS 3 Xrotation Zrotation Yrotation 
			JOINT rFoot
			{
				OFFSET 0.000000 -19.300380 -1.231939
				CHANNELS 3 Xrotation Yrotation Zrotation 
				End Site
				{
					OFFSET 0.000000 -2.463878 4.653993
				}
			}
		}
	}
}
MOTION
Frames: 18
Frame Time: 0.033264
0.000000 43.528500 0.000000 0.000000 0.000000 0.000000 0.000000 0.000000 0.000000 0.000000 0.000000 0.000000 0.000000 0.000000 0.000000 0.000000 0.000000 0.000000 0.000000 0.000000 0.000000 0.000000 0.000000 0.000000 0.000000 0.000000 0.000000 0.000000 0.000000 0.000000 0.000000 0.000000 0.000000 0.000000 0.000000 0.000000 0.000000 0.000000 0.000000 0.000000 0.000000 0.000000 0.000000 0.000000 0.000000 0.000000 0.000000 0.000000 0.000000 0.000000 0.000000 0.000000 0.000000 0.000000 0.000000 0.000000 0.000000 0.000000 0.000000 0.000000 
0.000000 43.801834 0.000000 13.997043 0.000000 -180.000000 58.626629 -1.526976 -1.906260 29.665268 0.585770 -1.221447 -24.303101 0.000000 0.000000 -0.568282 0.319977 -0.001587 7.586833 -30.284885 -20.678679 -53.970516 -20.376900 24.127224 -101.221375 -25.339289 -18.875765 18.389576 -6.899135 9.485160 11.028214 -4.888435 -18.902922 10.977420 60.249992 -31.812019 5.991271 6.610029 -14.682859 38.413597 15.962047 9.576685 -80.439354 39.749897 12.836467 101.024330 4.047228 -1.869060 -12.746560 4.035112 -1.572035 -79.684982 -45.288136 -11.624569 104.695290 -4.659698 1.609813 -16.196220 1.296730 3.889046 
0.000000 43.527161 0.000000 14.807179 -0.067187 -179.968704 57.518566 -1.526025 -1.918244 28.570454 0.588626 -1.239205 -24.913521 0.000000 0.000000 -0.901553 0.320001 -0.001643 7.890289 -30.394157 -19.984152 -53.970516 -20.376900 24.127224 -99.627914 -25.735065 -18.084881 18.934513 -6.545652 8.375336 10.787439 -4.393083 -18.180544 11.193419 60.487160 -31.619808 5.991271 6.610029 -14.682861 38.662903 15.320967 9.651875 -82.392494 39.730125 12.200391 101.620003 4.077520 -1.827623 -12.451434 4.257523 -1.509309 -81.817604 -45.167103 -10.688609 105.337921 -4.694101 1.560976 -15.914483 0.979940 3.924383 
0.000000 43.252483 0.000000 15.847788 -0.154117 -179.929886 56.408855 -1.525305 -1.930263 27.474020 0.591145 -1.257039 -25.524225 0.000000 0.000000 -1.234870 0.320025 -0.001700 8.195740 -30.500296 -19.287882 -53.970520 -20.376902 24.127226 -98.018806 -26.111769 -17.277203 19.473074 -6.181084 7.267665 10.540311 -3.900285 -17.455776 11.412637 60.723953 -31.424341 5.991271 6.610030 -14.682861 38.910728 14.679204 9.723992 -84.350792 39.693558 11.563756 102.215988 4.107396 -1.785854 -12.156415 4.480291 -1.447705 -83.948975 -45.021126 -9.758869 105.980919 -4.727973 1.511727 -15.632510 0.663257 3.961284 
0.000000 42.977810 0.000000 17.232994 -0.270907 -179.880676 55.297661 -1.524817 -1.942309 26.376171 0.593325 -1.274942 -26.135174 0.000000 0.000000 -1.568225 0.320048 -0.001757 8.503116 -30.603264 -18.589933 -53.970520 -20.376902 24.127224 -96.394905 -26.468704 -16.453466 20.004946 -5.805638 6.162440 10.286861 -3.410203 -16.728622 11.635170 60.960407 -31.225546 5.991271 6.610029 -14.682861 39.157124 14.036826 9.793076 -86.312798 39.640114 10.927715 102.812218 4.136846 -1.743758 -11.861501 4.703408 -1.387224 -86.076897 -44.850395 -8.837397 106.624275 -4.761307 1.462075 -15.350297 0.346699 3.999749 
0.000000 42.703133 0.000000 19.167227 -0.435917 -179.816742 54.185204 -1.524563 -1.954376 25.277115 0.595163 -1.292903 -26.746328 0.000000 0.000000 -1.901615 0.320071 -0.001814 8.812357 -30.703033 -17.890383 -53.970516 -20.376900 24.127224 -94.757111 -26.805178 -15.614473 20.529833 -5.419533 5.059946 10.027119 -2.922992 -15.999073 11.861093 61.196503 -31.023340 5.991271 6.610029 -14.682859 39.402168 13.393892 9.859159 -88.276962 39.569752 10.293438 103.408699 4.165867 -1.701341 -11.566683 4.926860 -1.327868 -88.199104 -44.655121 -7.926182 107.267914 -4.794094 1.412030 -15.067828 0.030282 4.039779 
0.000000 42.428459 0.000000 22.055433 -0.686115 -179.731689 53.071701 -1.524543 -1.966458 24.177036 0.596658 -1.310913 -27.357662 0.000000 0.000000 -2.235033 0.320094 -0.001871 9.123398 -30.799564 -17.189299 -53.970516 -20.376898 24.127222 -93.106308 -27.120531 -14.761096 21.047434 -5.022999 3.960457 9.761112 -2.438812 -15.267128 12.090468 61.432182 -30.817636 5.991271 6.610029 -14.682859 39.645893 12.750461 9.922273 -90.241806 39.482494 9.662080 104.005379 4.194453 -1.658610 -11.271965 5.150639 -1.269642 -90.313431 -44.435608 -7.027137 107.911835 -4.826330 1.361600 -14.785094 -0.285978 4.081374 
0.000000 42.153782 0.000000 26.825613 -1.107758 -179.619125 51.957344 -1.524758 -1.978546 23.076147 0.597808 -1.328962 -27.969122 0.000000 0.000000 -2.568473 0.320116 -0.001928 9.436172 -30.892839 -16.486759 -53.970516 -20.376900 24.127224 -91.443550 -27.414169 -13.894287 21.557470 -4.616280 2.864230 9.488882 -1.957819 -14.532793 12.323374 61.667511 -30.608400 5.991271 6.610029 -14.682859 39.888371 12.106589 9.982448 -92.205811 39.378426 9.034806 104.602242 4.222601 -1.615573 -10.977345 5.374732 -1.212546 -92.417786 -44.192261 -6.142105 108.555969 -4.858007 1.310794 -14.502089 -0.602063 4.124536 
0.000000 41.879108 0.000000 36.150475 -1.952032 -179.501984 50.842369 -1.525208 -1.990635 21.974648 0.598611 -1.347039 -28.580694 0.000000 0.000000 -2.901929 0.320138 -0.001985 9.750608 -30.982828 -15.782847 -53.970516 -20.376900 24.127224 -89.769966 -27.685553 -13.015074 22.059677 -4.199636 1.771520 9.210464 -1.480170 -13.796078 12.559912 61.902420 -30.395504 5.991271 6.610029 -14.682859 40.129631 11.462337 10.039711 -94.167488 39.257675 8.412750 105.199234 4.250304 -1.572235 -10.682820 5.599130 -1.156583 -94.510216 -43.925579 -5.272822 109.200287 -4.889120 1.259622 -14.218801 -0.917958 4.169267 
0.000000 41.604431 0.000000 61.615143 -4.228601 -179.883423 49.726967 -1.525895 -2.002718 20.872736 0.599067 -1.365135 -29.192339 0.000000 0.000000 -3.235399 0.320159 -0.002043 10.066638 -31.069492 -15.077629 -53.970516 -20.376900 24.127224 -88.086639 -27.934143 -12.124529 22.553808 -3.773335 0.682562 8.925903 -1.006020 -13.056987 12.800146 62.136929 -30.178890 5.991271 6.610029 -14.682859 40.369747 10.817764 10.094097 -96.125389 39.120419 7.797011 105.796333 4.277558 -1.528604 -10.388390 5.823821 -1.101757 -96.588768 -43.636086 -4.420908 109.844719 -4.919659 1.208094 -13.935224 -1.233645 4.215566 
0.000000 41.329758 0.000000 -172.160126 -4.985193 170.819412 48.611347 -1.526815 -2.014787 19.770622 0.599174 -1.383240 -29.804016 0.000000 0.000000 -3.568872 0.320181 -0.002100 10.384193 -31.152828 -14.371195 -53.970520 -20.376902 24.127226 -86.394867 -28.159513 -11.223809 23.039612 -3.337658 -0.402418 8.635242 -0.535523 -12.315536 13.044172 62.370998 -29.958460 5.991271 6.610030 -14.682861 40.608757 10.172926 10.145626 -98.078072 38.966908 7.188688 106.393517 4.304360 -1.484686 -10.094046 6.048793 -1.048069 -98.651711 -43.324436 -3.587877 110.489288 -4.949623 1.156218 -13.651342 -1.549108 4.263434 
0.000000 41.055084 0.000000 -46.761528 2.976593 175.626633 47.495735 -1.527971 -2.026836 18.668509 0.598933 -1.401343 -30.415693 0.000000 0.000000 -3.902347 0.320202 -0.002158 10.703201 -31.232800 -13.663620 -53.970516 -20.376900 24.127224 -84.695869 -28.361267 -10.314117 23.516867 -2.892896 -1.483207 8.338528 -0.068833 -11.571735 13.292062 62.604618 -29.734140 5.991271 6.610029 -14.682859 40.846703 9.527881 10.194325 -100.024094 38.797394 6.588799 106.990738 4.330702 -1.440489 -9.799789 6.274038 -0.995522 -100.697395 -42.991322 -2.775103 111.133896 -4.979001 1.104004 -13.367150 -1.864329 4.312874 
0.000000 40.780407 0.000000 -21.213995 2.315990 177.840775 46.380318 -1.529360 -2.038858 17.566605 0.598345 -1.419436 -31.027334 0.000000 0.000000 -4.235816 0.320222 -0.002216 11.023586 -31.309393 -12.954991 -53.970512 -20.376900 24.127222 -82.990997 -28.539076 -9.396708 23.985361 -2.439348 -2.559604 8.035817 0.393899 -10.825617 13.543925 62.837795 -29.505817 5.991271 6.610029 -14.682859 41.083645 8.882689 10.240219 -101.962135 38.612251 5.998361 107.587952 4.356583 -1.396020 -9.505616 6.499540 -0.944117 -102.724304 -42.637508 -1.983824 111.778496 -5.007791 1.051464 -13.082639 -2.179293 4.363886 
0.000000 40.505733 0.000000 -11.860109 1.838373 178.547256 45.265339 -1.530983 -2.050846 16.465101 0.597408 -1.437507 -31.638905 0.000000 0.000000 -4.569273 0.320243 -0.002274 11.345278 -31.382586 -12.245386 -53.970520 -20.376902 24.127226 -81.281578 -28.692659 -8.472864 24.444889 -1.977323 -3.631423 7.727159 0.852524 -10.077189 13.799846 63.070499 -29.273422 5.991271 6.610029 -14.682859 41.319630 8.237409 10.283337 -103.890877 38.411827 5.418294 108.185158 4.381998 -1.351286 -9.211527 6.725295 -0.893858 -104.731010 -42.263763 -1.215148 112.423096 -5.035987 0.998606 -12.797802 -2.493982 4.416473 
0.000000 40.231056 0.000000 -7.078341 1.551221 178.876038 44.150986 -1.532838 -2.062793 15.364214 0.596126 -1.455546 -32.250378 0.000000 0.000000 -4.902713 0.320263 -0.002332 11.668190 -31.452345 -11.534890 -53.970520 -20.376902 24.127226 -79.569054 -28.821831 -7.543934 24.895262 -1.507140 -4.698487 7.412614 1.306892 -9.326488 14.059924 63.302719 -29.036848 5.991271 6.610029 -14.682859 41.554707 7.592098 10.323696 -105.809013 38.196541 4.849502 108.782295 4.406941 -1.306295 -8.917520 6.951287 -0.844746 -106.716331 -41.870987 -0.470043 113.067635 -5.063585 0.945440 -12.512626 -2.808380 4.470632 
0.000000 39.956383 0.000000 -4.184502 1.364413 179.063004 43.037487 -1.534922 -2.074694 14.264135 0.594498 -1.473545 -32.861702 0.000000 0.000000 -5.236131 0.320282 -0.002390 11.992258 -31.518669 -10.823593 -53.970516 -20.376898 24.127222 -77.854813 -28.926443 -6.611259 25.336306 -1.029119 -5.760635 7.092243 1.756860 -8.573538 14.324244 63.534420 -28.795996 5.991271 6.610029 -14.682861 41.788925 6.946814 10.361319 -107.715408 37.966858 4.292797 109.379356 4.431411 -1.261053 -8.623587 7.177508 -0.796783 -108.679146 -41.460075 0.250671 113.712036 -5.090577 0.891978 -12.227100 -3.122469 4.526367 
0.000000 39.681705 0.000000 -2.247130 1.234145 179.182816 41.925018 -1.537236 -2.086539 13.165077 0.592527 -1.491492 -33.472851 0.000000 0.000000 -5.569519 0.320301 -0.002448 12.317397 -31.581532 -10.111573 -53.970516 -20.376898 24.127222 -76.140312 -29.006441 -5.676225 25.767864 -0.543595 -6.817717 6.766111 2.202282 -7.818374 14.592921 63.765621 -28.550774 5.991271 6.610029 -14.682859 42.022324 6.301615 10.396226 -109.608894 37.723282 3.748955 109.976280 4.455403 -1.215570 -8.329730 7.403944 -0.749973 -110.618423 -41.031918 0.946302 114.356300 -5.116960 0.838228 -11.941222 -3.436234 4.583680 
0.000000 39.407032 0.000000 -0.860007 1.138410 179.265869 40.813835 -1.539775 -2.098325 12.067232 0.590215 -1.509378 -34.083801 0.000000 0.000000 -5.902876 0.320320 -0.002506 12.643531 -31.640938 -9.398928 -53.970516 -20.376900 24.127224 -74.426987 -29.061813 -4.740206 26.189795 -0.050900 -7.869596 6.434287 2.643017 -7.061033 14.866052 63.996300 -28.301077 5.991271 6.610029 -14.682859 42.254955 5.656558 10.428440 -111.488411 37.466335 3.218667 110.573074 4.478915 -1.169851 -8.035946 7.630586 -0.704316 -112.533348 -40.587502 1.616291 115.000374 -5.142731 0.784203 -11.654977 -3.749657 4.642571 
